PathFileType	4	(x/y/z)	S01_P20_T22
DataRate	CameraRate	NumFrames	NumMarkers	Units	OrigDataRate	OrigDataStartFrame	OrigNumFrames
240	240	10	51	mm	240	253	404
Frame#	Time	Sternum			R.Acromium			L.Acromium			Top.Head			R.ASIS			L.ASIS			R.PSIS			L.PSIS			R.Great.Tro			L.Great.Tro			R.Iliac.Crest			L.Iliac.Crest			V.Sacral			R.Thigh.Upper.Post			R.Thigh.Lower.Ant			R.Thigh.Lower.Post			R.Thigh.Upper.Ant			R.Knee.Lat			R.Knee.Med			R.Shank.Upper.Post			R.Shank.Lower.Ant			R.Shank.Lower.Post			R.Shank.Upper.Ant			R.Ankle.Lat			R.Ankle.Med			R.Heel.Upper			R.Heel.Med			R.Heel.Lat			R.Toe.Lat			R.Toe.Med			R.Toe.Tip			L.Thigh.Upper.Post			L.Thigh.Lower.Ant			L.Thigh.Lower.Post			L.Thigh.Upper.Ant			L.Knee.Lat			L.Knee.Med			L.Shank.Upper.Post			L.Shank.Lower.Ant			L.Shank.Lower.Post			L.Shank.Upper.Ant			L.Ankle.Lat			L.Ankle.Med			L.Heel.Upper			L.Heel.Med			L.Heel.Lat			L.Toe.Lat			L.Toe.Med			L.Toe.Tip			Cervical.Spine			Back			
		X1	Y1	Z1	X2	Y2	Z2	X3	Y3	Z3	X4	Y4	Z4	X5	Y5	Z5	X6	Y6	Z6	X7	Y7	Z7	X8	Y8	Z8	X9	Y9	Z9	X10	Y10	Z10	X11	Y11	Z11	X12	Y12	Z12	X13	Y13	Z13	X14	Y14	Z14	X15	Y15	Z15	X16	Y16	Z16	X17	Y17	Z17	X18	Y18	Z18	X19	Y19	Z19	X20	Y20	Z20	X21	Y21	Z21	X22	Y22	Z22	X23	Y23	Z23	X24	Y24	Z24	X25	Y25	Z25	X26	Y26	Z26	X27	Y27	Z27	X28	Y28	Z28	X29	Y29	Z29	X30	Y30	Z30	X31	Y31	Z31	X32	Y32	Z32	X33	Y33	Z33	X34	Y34	Z34	X35	Y35	Z35	X36	Y36	Z36	X37	Y37	Z37	X38	Y38	Z38	X39	Y39	Z39	X40	Y40	Z40	X41	Y41	Z41	X42	Y42	Z42	X43	Y43	Z43	X44	Y44	Z44	X45	Y45	Z45	X46	Y46	Z46	X47	Y47	Z47	X48	Y48	Z48	X49	Y49	Z49	X50	Y50	Z50	X51	Y51	Z51	

253	1.05	40.481	1234.5	242.89	-67.902	1489.8	420.38	-99.524	1502.2	89.923	-57.227	1815.7	246.81	-17.371	982.52	407.1	0.056818	990.88	141.34	-248.55	1029.3	298.15	-243.68	1026.3	195.1	-103.7	931.3	481.39	-90.634	943.08	54.264	-103.07	1086.4	463.75	-108.36	1068.4	59.027	-257.55	990.17	243.74	-120.55	626.87	474.7	-49.481	553.52	469.09	-116.92	537.93	463.36	-49.35	643.61	478.61	-104.4	473.06	464.91	-76.045	463.73	322.32	-251.62	404.38	474.89	-273.55	304.08	435.58	-307.22	363.02	461.53	-219.31	349.86	455.66	-462.03	232.16	419.17	-430.04	213.14	329.49	-521.74	269.94	356.17	-532.17	244.39	322.78	-544.05	242.73	386.48	-455.24	81.062	447.4	-417.63	70.345	327.11	-367.58	38.946	385.05	-8.0926	665.06	86.513	97.28	633.67	90.261	35.796	587.32	108.56	44.139	709.8	67.413	119.61	532.74	104.13	130.64	547.24	243.81	90.616	394.66	80.49	155.3	309.27	111.2	97.056	316.97	83.131	150.57	385.94	104.45	90.251	103.71	113.03	110.45	114.28	211.69	18.915	71.196	155.51	27.704	46.314	190.06	29.702	44.356	127.95	238.62	42.689	100.86	260.57	54.629	223.4	324.13	67.336	173.59	-171.32	1556.6	262.75	-261.83	1248	282.54
254	1.0542	46.254	1235.4	242.42	-62.367	1490.8	419.47	-93.494	1502.9	89.037	-51.239	1816.5	245.55	-11.558	983.36	406.64	6.0372	991.73	140.83	-242.74	1029.9	297.81	-237.75	1027	194.73	-97.623	931.97	481.11	-84.657	943.84	53.908	-97.405	1087.2	463.22	-102.64	1069	58.627	-251.65	990.81	243.36	-110.93	627.31	475.16	-39.008	554.76	470.18	-106.28	538.37	464	-39.932	644.84	479.4	-92.809	473.99	465.7	-63.817	464.57	323.06	-240.17	406.55	475.41	-263.12	306.59	435.8	-296.21	365.85	461.84	-208.39	351.73	456.04	-452.14	237.17	419	-420.32	217.08	329.38	-510.45	276.44	355.6	-521.67	251.18	322.16	-533.78	249.96	385.87	-449.57	85.373	447.16	-411.76	73.132	327.32	-363.14	39.331	385.56	-3.085	665.44	86.31	102.13	633.59	90.226	40.412	587.51	108.41	49.382	709.95	67.313	123.87	532.43	104.18	134.83	546.96	243.87	93.743	394.64	80.581	157.68	308.69	111.31	99.508	316.9	83.212	153.62	385.39	104.53	90.545	103.79	113.2	110.77	114.16	211.82	19.088	71.374	155.55	27.786	46.425	190.06	29.797	44.539	127.97	238.77	42.383	100.9	260.71	53.857	223.52	324.32	66.443	173.78	-165.6	1557.4	261.67	-256	1248.8	281.77
255	1.0583	51.992	1236.3	241.99	-56.879	1491.9	418.62	-87.491	1503.6	88.183	-45.252	1817.3	244.32	-5.7906	984.27	406.22	11.988	992.62	140.37	-236.95	1030.5	297.47	-231.85	1027.7	194.36	-91.6	932.72	480.87	-78.705	944.65	53.577	-91.807	1088.1	462.75	-96.931	1069.6	58.221	-245.79	991.53	242.98	-101.33	627.88	475.58	-28.565	556.14	471.2	-95.645	538.97	464.59	-30.542	646.21	480.15	-81.243	475.07	466.44	-51.657	465.62	323.73	-228.65	408.7	475.86	-252.53	309.1	435.9	-285.09	368.62	462.08	-197.36	353.64	456.33	-442.02	242.03	418.7	-410.36	220.89	329.14	-498.99	282.58	354.88	-510.94	257.57	321.42	-523.26	256.83	385.14	-443.31	89.708	446.9	-405.29	75.931	327.52	-358.07	39.907	386.08	1.7815	665.86	86.11	106.83	633.51	90.205	44.871	587.73	108.26	54.508	710.12	67.225	127.95	532.12	104.22	138.81	546.67	243.92	96.69	394.6	80.671	159.91	308.11	111.41	101.8	316.82	83.292	156.49	384.85	104.59	90.796	103.87	113.36	111.05	114.06	211.94	19.237	71.522	155.6	27.862	46.514	190.07	29.883	44.696	127.99	238.91	42.152	100.94	260.82	53.199	223.63	324.48	65.699	173.95	-159.9	1558.2	260.62	-250.2	1249.7	281.01
256	1.0625	57.7	1237.4	241.62	-51.439	1493	417.82	-81.514	1504.4	87.361	-39.271	1818.2	243.13	-0.066615	985.25	405.84	17.91	993.54	139.94	-231.19	1031.2	297.13	-225.97	1028.5	193.99	-85.627	933.57	480.66	-72.779	945.51	53.273	-86.269	1089	462.33	-91.23	1070.3	57.81	-239.95	992.33	242.6	-91.758	628.6	475.96	-18.16	557.68	472.15	-85.037	539.72	465.13	-21.186	647.72	480.85	-69.711	476.3	467.11	-39.58	466.89	324.32	-217.11	410.86	476.24	-241.8	311.6	435.89	-273.89	371.32	462.24	-186.25	355.58	456.52	-431.7	246.73	418.29	-400.16	224.58	328.78	-487.42	288.34	354.01	-500.01	263.51	320.54	-512.54	263.28	384.27	-436.43	94.019	446.62	-398.18	78.718	327.7	-352.31	40.686	386.59	6.5084	666.31	85.915	111.4	633.45	90.196	49.175	587.97	108.08	59.517	710.32	67.149	131.85	531.82	104.27	142.62	546.36	243.97	99.463	394.56	80.755	162	307.56	111.48	103.95	316.74	83.366	159.19	384.32	104.63	91.007	103.95	113.51	111.28	113.99	212.05	19.366	71.646	155.64	27.93	46.586	190.08	29.958	44.83	128.01	239.02	41.984	100.97	260.91	52.643	223.73	324.6	65.09	174.11	-154.22	1559.1	259.62	-244.44	1250.6	280.27
257	1.0667	63.382	1238.5	241.29	-46.042	1494.2	417.08	-75.565	1505.3	86.572	-33.296	1819.2	241.98	5.615	986.3	405.51	23.808	994.5	139.55	-225.45	1032.1	296.8	-220.1	1029.4	193.62	-79.706	934.51	480.5	-66.88	946.4	52.999	-80.788	1090	461.96	-85.526	1071	57.396	-234.15	993.22	242.22	-82.211	629.47	476.29	-7.7968	559.37	473.03	-74.458	540.62	465.62	-11.869	649.37	481.51	-58.227	477.68	467.73	-27.596	468.36	324.84	-205.55	413	476.53	-230.94	314.07	435.78	-262.63	373.95	462.32	-175.06	357.57	456.62	-421.2	251.23	417.77	-389.72	228.11	328.3	-475.78	293.67	352.99	-488.92	268.98	319.55	-501.65	269.26	383.29	-428.9	98.256	446.33	-390.41	81.47	327.84	-345.8	41.673	387.09	11.098	666.79	85.726	115.84	633.4	90.196	53.331	588.24	107.9	64.407	710.55	67.084	135.57	531.52	104.31	146.26	546.05	244.02	102.07	394.5	80.829	163.95	307.02	111.54	105.96	316.66	83.43	161.73	383.79	104.65	91.183	104.03	113.65	111.48	113.93	212.16	19.474	71.747	155.68	27.99	46.643	190.09	30.023	44.943	128.02	239.12	41.869	100.99	260.98	52.181	223.82	324.69	64.601	174.25	-148.56	1560.1	258.65	-238.71	1251.5	279.53
258	1.0708	69.041	1239.6	241.02	-40.688	1495.4	416.4	-69.643	1506.2	85.818	-27.332	1820.2	240.87	11.256	987.42	405.23	29.683	995.48	139.21	-219.73	1032.9	296.46	-214.26	1030.4	193.24	-73.836	935.54	480.37	-61.01	947.33	52.757	-75.359	1091	461.65	-79.812	1071.8	56.98	-228.37	994.18	241.84	-72.696	630.47	476.59	2.5204	561.21	473.83	-63.912	541.69	466.05	-2.5936	651.16	482.11	-46.802	479.2	468.29	-15.712	470.02	325.3	-194	415.13	476.75	-219.97	316.52	435.57	-251.32	376.51	462.31	-163.82	359.59	456.64	-410.52	255.51	417.14	-379.07	231.47	327.71	-464.08	298.56	351.85	-477.7	273.95	318.46	-490.61	274.73	382.2	-420.72	102.37	446.02	-381.98	84.165	327.96	-338.5	42.864	387.57	15.553	667.31	85.543	120.14	633.36	90.202	57.34	588.55	107.7	69.18	710.81	67.029	139.12	531.23	104.34	149.75	545.74	244.05	104.53	394.43	80.89	165.78	306.5	111.58	107.84	316.57	83.482	164.11	383.28	104.66	91.327	104.11	113.78	111.65	113.9	212.25	19.565	71.828	155.71	28.044	46.688	190.1	30.079	45.036	128.04	239.19	41.797	101.01	261.02	51.803	223.9	324.75	64.219	174.37	-142.91	1561.1	257.71	-233.02	1252.5	278.81
259	1.075	74.68	1240.9	240.79	-35.373	1496.7	415.77	-63.747	1507.1	85.099	-21.38	1821.2	239.81	16.859	988.61	404.99	35.538	996.5	138.92	-214.03	1033.9	296.12	-208.43	1031.5	192.87	-68.017	936.66	480.27	-55.171	948.3	52.546	-69.977	1092	461.39	-74.08	1072.6	56.567	-222.62	995.23	241.47	-63.214	631.62	476.84	12.79	563.2	474.56	-53.404	542.91	466.44	6.6362	653.09	482.67	-35.444	480.87	468.79	-3.9339	471.87	325.69	-182.48	417.26	476.88	-208.9	318.94	435.27	-239.99	378.99	462.21	-152.53	361.64	456.58	-399.68	259.53	416.41	-368.2	234.65	327.02	-452.37	302.98	350.6	-466.36	278.39	317.27	-479.44	279.67	381.01	-411.88	106.31	445.69	-372.87	86.779	328.02	-330.4	44.245	388.02	19.876	667.85	85.364	124.31	633.33	90.212	61.207	588.87	107.5	73.835	711.08	66.983	142.5	530.94	104.36	153.11	545.42	244.07	106.83	394.36	80.935	167.48	305.99	111.59	109.59	316.48	83.519	166.35	382.78	104.65	91.443	104.19	113.89	111.79	113.88	212.33	19.638	71.893	155.75	28.09	46.723	190.11	30.126	45.113	128.05	239.26	41.762	101.03	261.06	51.501	223.96	324.79	63.93	174.48	-137.29	1562.2	256.82	-227.36	1253.6	278.09
260	1.0792	80.302	1242.1	240.61	-30.096	1498	415.2	-57.879	1508.1	84.415	-15.442	1822.3	238.79	22.426	989.88	404.79	41.375	997.54	138.67	-208.35	1035	295.79	-202.61	1032.6	192.5	-62.248	937.88	480.21	-49.364	949.29	52.366	-64.636	1093.1	461.17	-68.325	1073.5	56.162	-216.9	996.36	241.1	-53.769	632.91	477.06	23.011	565.33	475.22	-42.935	544.28	466.77	15.819	655.15	483.16	-24.159	482.68	469.23	7.7373	473.9	326.02	-171	419.38	476.92	-197.74	321.32	434.9	-228.64	381.39	462.04	-141.22	363.72	456.45	-388.69	263.27	415.6	-357.13	237.63	326.24	-440.65	306.92	349.26	-454.92	282.3	316	-468.17	284.04	379.74	-402.38	110.04	445.33	-363.09	89.29	328.04	-321.47	45.791	388.41	24.074	668.42	85.189	128.35	633.32	90.222	64.936	589.22	107.28	78.372	711.38	66.943	145.71	530.66	104.37	156.33	545.09	244.07	109	394.28	80.961	169.08	305.51	111.59	111.23	316.4	83.539	168.44	382.29	104.62	91.535	104.26	113.99	111.91	113.87	212.4	19.696	71.945	155.77	28.129	46.751	190.11	30.164	45.176	128.07	239.3	41.755	101.04	261.07	51.266	224.01	324.81	63.722	174.56	-131.67	1563.4	255.97	-221.73	1254.7	277.38
261	1.0833	85.908	1243.5	240.48	-24.853	1499.3	414.67	-52.038	1509.2	83.768	-9.5204	1823.5	237.82	27.959	991.22	404.64	47.195	998.6	138.47	-202.67	1036.1	295.46	-196.82	1033.8	192.13	-56.525	939.19	480.17	-43.589	950.31	52.217	-59.333	1094.3	460.99	-62.544	1074.5	55.77	-211.2	997.56	240.73	-44.362	634.32	477.24	33.181	567.6	475.81	-32.507	545.8	467.06	24.954	657.34	483.61	-12.952	484.62	469.63	19.3	476.09	326.3	-159.56	421.49	476.89	-186.5	323.65	434.47	-217.29	383.7	461.78	-129.89	365.83	456.26	-377.55	266.71	414.71	-345.86	240.4	325.39	-428.93	310.37	347.86	-443.39	285.67	314.67	-456.8	287.84	378.41	-392.24	113.5	444.94	-352.65	91.674	327.99	-311.73	47.469	388.73	28.15	669.03	85.015	132.26	633.31	90.229	68.531	589.6	107.06	82.793	711.71	66.91	148.76	530.38	104.36	159.43	544.76	244.04	111.04	394.19	80.965	170.56	305.04	111.58	112.76	316.3	83.54	170.4	381.82	104.58	91.605	104.33	114.08	112	113.89	212.46	19.741	71.985	155.79	28.161	46.774	190.12	30.194	45.226	128.07	239.34	41.77	101.04	261.08	51.091	224.05	324.82	63.584	174.64	-126.08	1564.6	255.16	-216.13	1255.9	276.69
262	1.0875	91.5	1244.9	240.39	-19.642	1500.7	414.19	-46.224	1510.3	83.157	-3.616	1824.7	236.89	33.463	992.62	404.52	53.001	999.69	138.32	-197.01	1037.3	295.13	-191.04	1035.1	191.77	-50.846	940.58	480.16	-37.847	951.36	52.098	-54.063	1095.5	460.85	-56.733	1075.5	55.397	-205.52	998.84	240.38	-34.993	635.87	477.41	43.301	570.01	476.33	-22.124	547.45	467.32	34.04	659.65	484	-1.8271	486.68	469.98	30.756	478.43	326.53	-148.19	423.6	476.77	-175.18	325.93	433.99	-205.94	385.92	461.45	-118.53	367.96	456.03	-366.26	269.81	413.76	-334.4	242.94	324.46	-417.21	313.32	346.4	-431.78	288.5	313.31	-445.34	291.06	377.03	-381.49	116.67	444.49	-341.56	93.908	327.87	-301.18	49.237	388.97	32.111	669.66	84.84	136.05	633.32	90.231	71.996	590	106.82	87.099	712.05	66.881	151.65	530.11	104.33	162.41	544.43	243.99	112.95	394.1	80.945	171.95	304.59	111.54	114.19	316.21	83.521	172.24	381.36	104.51	91.656	104.4	114.15	112.08	113.91	212.49	19.772	72.015	155.81	28.186	46.793	190.12	30.217	45.266	128.08	239.36	41.801	101.04	261.08	50.97	224.08	324.81	63.506	174.69	-120.5	1565.8	254.38	-210.56	1257.1	276
